<?xml version="1.0" encoding="UTF-8" standalone="no"?><svg xmlns="http://www.w3.org/2000/svg" xmlns:xlink="http://www.w3.org/1999/xlink" contentScriptType="application/ecmascript" contentStyleType="text/css" height="177px" preserveAspectRatio="none" style="width:429px;height:177px;" version="1.1" viewBox="0 0 429 177" width="429px" zoomAndPan="magnify"><defs><filter height="300%" id="f1cxnww375uzcs" width="300%" x="-1" y="-1"><feGaussianBlur result="blurOut" stdDeviation="2.0"/><feColorMatrix in="blurOut" result="blurOut2" type="matrix" values="0 0 0 0 0 0 0 0 0 0 0 0 0 0 0 0 0 0 .4 0"/><feOffset dx="4.0" dy="4.0" in="blurOut2" result="blurOut3"/><feBlend in="SourceGraphic" in2="blurOut3" mode="normal"/></filter></defs><g><!--MD5=[74af6fb60f641a92bda1577bf205782d]
class ManagementGroup--><rect fill="#FEFECE" filter="url(#f1cxnww375uzcs)" height="48" id="ManagementGroup" style="stroke:#A80036;stroke-width:1.5;" width="142" x="7" y="7"/><ellipse cx="22" cy="23" fill="#ADD1B2" rx="11" ry="11" style="stroke:#A80036;stroke-width:1.0;"/><path d="M24.4731,29.1431 Q23.8921,29.4419 23.2529,29.5913 Q22.6138,29.7407 21.9082,29.7407 Q19.4014,29.7407 18.0815,28.0889 Q16.7617,26.437 16.7617,23.3159 Q16.7617,20.1865 18.0815,18.5347 Q19.4014,16.8828 21.9082,16.8828 Q22.6138,16.8828 23.2612,17.0322 Q23.9087,17.1816 24.4731,17.4805 L24.4731,20.2031 Q23.8423,19.6221 23.2488,19.3523 Q22.6553,19.0825 22.0244,19.0825 Q20.6797,19.0825 19.9949,20.1492 Q19.3101,21.2158 19.3101,23.3159 Q19.3101,25.4077 19.9949,26.4744 Q20.6797,27.541 22.0244,27.541 Q22.6553,27.541 23.2488,27.2712 Q23.8423,27.0015 24.4731,26.4204 Z " fill="#000000"/><text fill="#000000" font-family="sans-serif" font-size="12" lengthAdjust="spacing" textLength="110" x="36" y="27.5352">ManagementGroup</text><line style="stroke:#A80036;stroke-width:1.5;" x1="8" x2="148" y1="39" y2="39"/><line style="stroke:#A80036;stroke-width:1.5;" x1="8" x2="148" y1="47" y2="47"/><!--MD5=[545507b7baa8aade59e57dce916f0187]
class Subscription--><rect fill="#FEFECE" filter="url(#f1cxnww375uzcs)" height="48" id="Subscription" style="stroke:#A80036;stroke-width:1.5;" width="102" x="184" y="7"/><ellipse cx="199" cy="23" fill="#ADD1B2" rx="11" ry="11" style="stroke:#A80036;stroke-width:1.0;"/><path d="M201.4731,29.1431 Q200.8921,29.4419 200.2529,29.5913 Q199.6138,29.7407 198.9082,29.7407 Q196.4014,29.7407 195.0815,28.0889 Q193.7617,26.437 193.7617,23.3159 Q193.7617,20.1865 195.0815,18.5347 Q196.4014,16.8828 198.9082,16.8828 Q199.6138,16.8828 200.2612,17.0322 Q200.9087,17.1816 201.4731,17.4805 L201.4731,20.2031 Q200.8423,19.6221 200.2488,19.3523 Q199.6553,19.0825 199.0244,19.0825 Q197.6797,19.0825 196.9949,20.1492 Q196.3101,21.2158 196.3101,23.3159 Q196.3101,25.4077 196.9949,26.4744 Q197.6797,27.541 199.0244,27.541 Q199.6553,27.541 200.2488,27.2712 Q200.8423,27.0015 201.4731,26.4204 Z " fill="#000000"/><text fill="#000000" font-family="sans-serif" font-size="12" lengthAdjust="spacing" textLength="70" x="213" y="27.5352">Subscription</text><line style="stroke:#A80036;stroke-width:1.5;" x1="185" x2="285" y1="39" y2="39"/><line style="stroke:#A80036;stroke-width:1.5;" x1="185" x2="285" y1="47" y2="47"/><!--MD5=[d9628b878351e877cb6cef7e2f47b9cc]
class ResourceGroup--><rect fill="#FEFECE" filter="url(#f1cxnww375uzcs)" height="48" id="ResourceGroup" style="stroke:#A80036;stroke-width:1.5;" width="121" x="174.5" y="115"/><ellipse cx="189.5" cy="131" fill="#ADD1B2" rx="11" ry="11" style="stroke:#A80036;stroke-width:1.0;"/><path d="M191.9731,137.1431 Q191.3921,137.4419 190.7529,137.5913 Q190.1138,137.7407 189.4082,137.7407 Q186.9014,137.7407 185.5815,136.0889 Q184.2617,134.437 184.2617,131.3159 Q184.2617,128.1865 185.5815,126.5347 Q186.9014,124.8828 189.4082,124.8828 Q190.1138,124.8828 190.7612,125.0322 Q191.4087,125.1816 191.9731,125.4805 L191.9731,128.2031 Q191.3423,127.6221 190.7488,127.3523 Q190.1553,127.0825 189.5244,127.0825 Q188.1797,127.0825 187.4949,128.1492 Q186.8101,129.2158 186.8101,131.3159 Q186.8101,133.4077 187.4949,134.4744 Q188.1797,135.541 189.5244,135.541 Q190.1553,135.541 190.7488,135.2712 Q191.3423,135.0015 191.9731,134.4204 Z " fill="#000000"/><text fill="#000000" font-family="sans-serif" font-size="12" lengthAdjust="spacing" textLength="89" x="203.5" y="135.5352">ResourceGroup</text><line style="stroke:#A80036;stroke-width:1.5;" x1="175.5" x2="294.5" y1="147" y2="147"/><line style="stroke:#A80036;stroke-width:1.5;" x1="175.5" x2="294.5" y1="155" y2="155"/><!--MD5=[6b13f1b330d33795af281e5c1dfe1e98]
class Resource--><rect fill="#FEFECE" filter="url(#f1cxnww375uzcs)" height="48" id="Resource" style="stroke:#A80036;stroke-width:1.5;" width="85" x="330.5" y="115"/><ellipse cx="345.5" cy="131" fill="#ADD1B2" rx="11" ry="11" style="stroke:#A80036;stroke-width:1.0;"/><path d="M347.9731,137.1431 Q347.3921,137.4419 346.7529,137.5913 Q346.1138,137.7407 345.4082,137.7407 Q342.9014,137.7407 341.5815,136.0889 Q340.2617,134.437 340.2617,131.3159 Q340.2617,128.1865 341.5815,126.5347 Q342.9014,124.8828 345.4082,124.8828 Q346.1138,124.8828 346.7612,125.0322 Q347.4087,125.1816 347.9731,125.4805 L347.9731,128.2031 Q347.3423,127.6221 346.7488,127.3523 Q346.1553,127.0825 345.5244,127.0825 Q344.1797,127.0825 343.4949,128.1492 Q342.8101,129.2158 342.8101,131.3159 Q342.8101,133.4077 343.4949,134.4744 Q344.1797,135.541 345.5244,135.541 Q346.1553,135.541 346.7488,135.2712 Q347.3423,135.0015 347.9731,134.4204 Z " fill="#000000"/><text fill="#000000" font-family="sans-serif" font-size="12" lengthAdjust="spacing" textLength="53" x="359.5" y="135.5352">Resource</text><line style="stroke:#A80036;stroke-width:1.5;" x1="331.5" x2="414.5" y1="147" y2="147"/><line style="stroke:#A80036;stroke-width:1.5;" x1="331.5" x2="414.5" y1="155" y2="155"/><!--MD5=[fbd435c13d0a2f78d18d8c1a9145e97e]
link ManagementGroup to Subscription--><path codeLine="2" d="M157.24,31 C163.3,31 169.36,31 175.42,31 " fill="none" id="ManagementGroup-Subscription" style="stroke:#A80036;stroke-width:1.0;"/><line style="stroke:#A80036;stroke-width:1.0;" x1="175.69" x2="183.69" y1="31" y2="25"/><line style="stroke:#A80036;stroke-width:1.0;" x1="175.69" x2="183.69" y1="31" y2="37"/><line style="stroke:#A80036;stroke-width:1.0;" x1="175.69" x2="183.69" y1="31" y2="31"/><line style="stroke:#A80036;stroke-width:1.0;" x1="173.69" x2="173.69" y1="27" y2="35"/><line style="stroke:#A80036;stroke-width:1.0;" x1="153.14" x2="153.14" y1="35" y2="27"/><line style="stroke:#A80036;stroke-width:1.0;" x1="156.14" x2="156.14" y1="35" y2="27"/><line style="stroke:#A80036;stroke-width:1.0;" x1="157.14" x2="149.14" y1="31" y2="31"/><!--MD5=[9ca5456602e7f113a2c584b814d34f12]
link Subscription to ResourceGroup--><path codeLine="3" d="M235,63.26 C235,76.89 235,92.85 235,106.51 " fill="none" id="Subscription-ResourceGroup" style="stroke:#A80036;stroke-width:1.0;"/><line style="stroke:#A80036;stroke-width:1.0;" x1="235" x2="241" y1="106.68" y2="114.68"/><line style="stroke:#A80036;stroke-width:1.0;" x1="235" x2="229" y1="106.68" y2="114.68"/><line style="stroke:#A80036;stroke-width:1.0;" x1="235" x2="235" y1="106.68" y2="114.68"/><line style="stroke:#A80036;stroke-width:1.0;" x1="239" x2="231" y1="104.68" y2="104.68"/><line style="stroke:#A80036;stroke-width:1.0;" x1="231" x2="239" y1="59" y2="59"/><line style="stroke:#A80036;stroke-width:1.0;" x1="231" x2="239" y1="62" y2="62"/><line style="stroke:#A80036;stroke-width:1.0;" x1="235" x2="235" y1="63" y2="55"/><!--MD5=[5da8b314cddee88085692868a3dd7272]
link ResourceGroup to Resource--><path codeLine="4" d="M303.79,139 C309.89,139 315.98,139 322.08,139 " fill="none" id="ResourceGroup-Resource" style="stroke:#A80036;stroke-width:1.0;"/><line style="stroke:#A80036;stroke-width:1.0;" x1="322.39" x2="330.39" y1="139" y2="133"/><line style="stroke:#A80036;stroke-width:1.0;" x1="322.39" x2="330.39" y1="139" y2="145"/><line style="stroke:#A80036;stroke-width:1.0;" x1="322.39" x2="330.39" y1="139" y2="139"/><line style="stroke:#A80036;stroke-width:1.0;" x1="320.39" x2="320.39" y1="135" y2="143"/><line style="stroke:#A80036;stroke-width:1.0;" x1="299.64" x2="299.64" y1="143" y2="135"/><line style="stroke:#A80036;stroke-width:1.0;" x1="302.64" x2="302.64" y1="143" y2="135"/><line style="stroke:#A80036;stroke-width:1.0;" x1="303.64" x2="295.64" y1="139" y2="139"/><!--MD5=[bcf2eb7236cece9d419c2fb0ae5225b4]
@startuml

ManagementGroup ||-|{ Subscription
Subscription ||- -|{ ResourceGroup
ResourceGroup ||-|{ Resource 

@enduml

PlantUML version 1.2021.00(Sun Jan 10 10:25:05 GMT 2021)
(GPL source distribution)
Java Runtime: Java(TM) SE Runtime Environment
JVM: Java HotSpot(TM) 64-Bit Server VM
Default Encoding: UTF-8
Language: en
Country: GB
--></g></svg>